<?xml version="1.0" standalone="no"?>
<!DOCTYPE svg PUBLIC "-//W3C//DTD SVG 20010904//EN"
 "http://www.w3.org/TR/2001/REC-SVG-20010904/DTD/svg10.dtd">
<svg version="1.0" xmlns="http://www.w3.org/2000/svg"
 width="500.000000pt" height="500.000000pt" viewBox="0 0 500.000000 500.000000"
 preserveAspectRatio="xMidYMid meet">

<g transform="translate(0.000000,500.000000) scale(0.100000,-0.100000)"
fill="#000000" stroke="none">
<path d="M3860 4989 c-67 -13 -160 -63 -210 -112 -25 -24 -117 -153 -205 -285
l-160 -241 -1365 -3 -1365 -3 -58 -23 c-108 -44 -194 -130 -233 -235 -18 -51
-19 -90 -19 -1397 l0 -1345 23 -58 c47 -115 162 -209 290 -236 36 -8 297 -11
833 -11 739 0 780 -1 775 -17 -3 -10 -28 -112 -56 -228 -28 -116 -53 -218 -56
-227 -5 -16 -21 -18 -148 -18 -164 0 -220 -12 -287 -64 -64 -48 -100 -120
-108 -215 l-6 -76 -176 -5 c-154 -4 -180 -7 -197 -24 -45 -40 -36 -117 17
-149 27 -16 127 -17 1346 -17 1449 0 1369 -3 1395 60 15 36 5 82 -22 106 -17
17 -43 20 -197 24 l-176 5 -6 76 c-8 95 -44 167 -108 215 -67 52 -123 64 -287
64 -127 0 -143 2 -148 18 -3 9 -28 111 -56 227 -28 116 -53 218 -56 228 -5 16
36 17 775 17 532 0 797 4 833 11 157 33 279 155 308 308 15 78 14 2602 -1
2673 -40 188 -206 318 -405 318 -19 0 -34 2 -34 4 0 2 9 23 19 47 110 251 -43
538 -313 588 -68 12 -92 12 -156 0z m186 -207 c103 -53 152 -166 120 -274 -13
-43 -48 -92 -188 -263 -95 -116 -247 -301 -336 -410 -90 -110 -168 -202 -173
-203 -5 -2 -74 44 -153 103 l-144 108 295 441 c162 242 308 453 325 468 68 59
174 71 254 30z m-903 -629 c3 -5 -97 -159 -222 -343 l-226 -335 -75 -6 c-262
-21 -467 -180 -546 -422 -22 -69 -28 -105 -32 -229 -7 -211 34 -457 85 -518
36 -43 85 -41 147 6 26 19 72 47 104 62 56 26 63 27 307 33 225 5 256 8 305
27 121 48 229 168 270 299 23 74 27 197 9 285 l-11 55 233 284 c128 156 330
402 448 547 l215 262 109 0 c59 0 129 -5 154 -12 60 -15 127 -78 142 -134 8
-29 10 -321 9 -985 l-3 -944 -1558 -5 -1559 -5 -24 -28 c-42 -49 -22 -125 37
-146 23 -8 470 -11 1570 -11 l1539 0 0 -237 c0 -144 -5 -254 -11 -278 -15 -52
-82 -119 -134 -134 -57 -16 -3793 -16 -3850 0 -52 15 -119 82 -134 134 -6 24
-11 134 -11 277 l0 236 160 4 c159 3 160 3 187 30 36 36 38 97 5 130 -21 22
-33 23 -185 28 l-162 5 -3 944 c-1 664 1 956 9 985 14 52 82 120 135 134 46
12 2560 16 2567 5z m62 -573 c74 -55 135 -102 135 -105 0 -11 -203 -255 -212
-255 -5 0 -63 41 -129 91 l-120 91 17 26 c70 107 168 252 171 252 1 0 64 -45
138 -100z m-311 -430 c197 -145 199 -148 198 -281 0 -111 -56 -205 -150 -251
-44 -22 -62 -23 -292 -29 -235 -6 -248 -7 -318 -33 -41 -15 -75 -26 -77 -24
-11 11 -25 148 -25 243 0 227 67 368 208 443 74 40 151 60 224 61 l58 1 174
-130z m-254 -2117 c0 -5 25 -111 55 -237 30 -126 55 -233 55 -237 0 -5 -113
-9 -251 -9 l-251 0 7 33 c4 17 29 125 56 238 27 113 49 209 49 212 0 4 63 7
140 7 77 0 140 -3 140 -7z m605 -688 c39 -19 55 -51 55 -110 l0 -45 -800 0
-800 0 0 48 c1 54 17 89 51 108 19 11 165 13 742 14 629 0 723 -2 752 -15z"/>
<path d="M1036 2049 c-46 -54 -25 -130 40 -148 44 -12 74 -2 104 36 70 89 -71
199 -144 112z"/>
</g>
</svg>
